<svg version="1.1" id="Layer_1" xmlns="http://www.w3.org/2000/svg" xmlns:xlink="http://www.w3.org/1999/xlink"  viewBox="0 0 1024 1024" enable-background="new 0 0 1024 1024" xml:space="preserve">
<path fill="#000000" opacity="1.000000" stroke="none" 
	d="
M466.169495,778.242798 
	C459.818146,783.319580 459.661377,783.368896 454.852661,777.584229 
	C425.456787,742.222473 396.709351,706.342651 368.302063,670.179565 
	C360.463379,660.200745 358.397308,651.243530 365.260803,639.850342 
	C371.600159,629.327026 376.666656,617.994507 381.759460,606.775879 
	C385.934998,597.577820 392.904358,592.851440 402.462616,590.567810 
	C415.404297,587.475708 413.254456,590.309509 413.945862,575.989624 
	C414.057434,573.678345 414.162811,571.355225 412.594727,569.296875 
	C402.839386,556.491272 395.901794,542.048157 388.738159,527.756836 
	C386.318420,522.929626 383.251343,518.700562 379.736969,514.645508 
	C368.983521,502.237732 362.756683,488.060272 363.631744,471.305206 
	C363.860260,466.929901 363.217010,462.809845 361.818542,458.588531 
	C353.129730,432.361389 347.350464,405.551453 348.818512,377.756531 
	C350.081116,353.852112 358.967377,333.466003 379.023895,319.029816 
	C382.278412,316.687286 385.397339,314.292114 387.268951,310.525024 
	C401.739441,281.399445 426.111542,265.302002 456.958221,257.815002 
	C477.558685,252.814911 498.433594,249.646667 519.659485,249.720856 
	C544.825439,249.808838 569.888672,247.837463 594.989441,246.591095 
	C595.594604,246.561050 596.189514,246.325195 596.833191,246.175079 
	C596.156738,243.301437 592.544189,243.252701 591.911377,239.332947 
	C611.877014,241.645157 628.565125,249.584885 642.119934,263.644470 
	C656.223267,278.272980 660.283264,295.925934 654.750183,316.710968 
	C661.162354,310.890045 662.647949,303.272186 661.456604,287.314728 
	C668.222534,289.927765 673.186768,306.246948 671.099548,319.014496 
	C669.389832,329.472717 666.184875,334.938141 653.679443,348.658905 
	C654.038208,351.268402 656.346741,352.690857 657.784241,354.614899 
	C662.865356,361.416168 664.054749,368.680969 659.929810,376.130646 
	C656.261169,382.756409 654.993774,389.050659 657.950378,396.421753 
	C659.901123,401.285309 660.499390,406.729218 660.334595,412.128204 
	C660.252502,414.816650 659.164978,416.421570 656.416748,415.946686 
	C644.351318,413.861969 632.971497,417.281708 621.478760,420.000916 
	C619.645386,420.434662 617.731140,421.606628 615.009155,419.986969 
	C616.596863,413.950745 619.556580,408.950012 625.532227,406.144623 
	C632.071106,403.074768 638.963257,401.066711 646.195679,400.799347 
	C649.997375,400.658783 651.301514,399.461212 650.317444,395.637482 
	C646.243469,379.807495 641.442688,364.232544 634.460388,349.409912 
	C633.258118,346.857544 631.825562,344.387085 630.262634,342.036224 
	C625.847595,335.395721 623.690674,334.538086 616.220520,337.302399 
	C603.264282,342.096893 590.233093,340.105988 577.265442,337.907562 
	C562.356689,335.380066 547.859497,335.680450 533.610901,341.417755 
	C518.957703,347.317993 503.723083,350.634125 487.820221,350.146973 
	C484.497803,350.045227 481.186066,349.627594 477.866058,349.405090 
	C474.421509,349.174255 472.975433,350.846741 473.293549,354.246002 
	C473.798126,359.637817 475.977844,364.527985 477.834991,369.505066 
	C484.547180,387.493652 483.917633,383.719666 471.029541,394.359924 
	C464.069611,400.105957 457.497101,406.235474 452.290375,413.659637 
	C448.921875,418.462646 446.513550,423.712524 445.540649,430.525269 
	C453.920105,428.883270 461.801758,427.239410 469.721558,425.806305 
	C490.173950,422.105469 510.382294,416.912292 531.162415,415.202301 
	C552.779846,413.423370 574.124634,414.035828 594.212952,423.818451 
	C601.483643,427.359131 608.784180,427.395599 616.417786,424.302368 
	C640.035461,414.732361 663.758606,417.591644 687.361023,424.513824 
	C692.487122,426.017181 695.170349,432.128662 691.816345,437.130646 
	C686.832886,444.562469 687.516113,453.033478 685.366516,460.942474 
	C684.495300,464.148071 684.003784,467.463348 683.027893,470.632782 
	C680.192688,479.841125 674.834106,486.661224 664.787109,488.427307 
	C660.953186,489.101257 659.974304,491.092194 660.415405,494.685852 
	C663.621887,520.810242 658.222656,545.730652 649.116516,569.959351 
	C645.485168,579.621460 644.800354,589.750610 642.577881,599.623047 
	C637.751953,621.060303 625.400085,632.597839 603.658630,636.272949 
	C596.708130,637.447815 589.734070,637.416504 582.739746,637.419250 
	C580.446411,637.420105 577.927307,636.986633 576.863220,639.938354 
	C575.824280,642.820129 575.974609,645.326477 578.304688,647.716125 
	C592.562134,662.337891 604.008057,679.150330 615.627808,695.829102 
	C619.646545,701.597473 622.890564,707.755127 625.797852,714.138123 
	C630.290039,724.000732 635.318726,733.586975 641.245300,742.680603 
	C642.131958,744.041138 643.269531,745.296265 643.460144,747.486084 
	C638.237854,748.103516 633.538574,746.683350 628.849670,745.333618 
	C622.876221,743.614258 617.328003,740.980835 612.357178,737.219666 
	C610.773926,736.021667 609.442444,735.190674 607.643066,737.066528 
	C596.943787,748.220581 583.791992,756.948914 574.986267,769.972412 
	C570.811462,776.146851 566.797852,782.430420 562.636414,788.778625 
	C561.856384,788.409851 561.117493,788.279419 560.719360,787.840210 
	C550.711182,776.797119 541.175171,765.449951 537.807434,750.353516 
	C537.183350,747.556213 536.216553,744.923035 534.618347,742.541931 
	C529.506287,734.925842 521.142944,732.875122 513.220520,737.474915 
	C505.812561,741.776001 499.795044,747.857727 493.458618,753.498840 
	C484.377319,761.583618 475.448151,769.839355 466.169495,778.242798 
M619.840515,468.525024 
	C616.254517,460.830170 612.783020,453.079102 609.042847,445.459900 
	C606.483154,440.245422 602.177063,440.132935 599.297974,445.167450 
	C597.991638,447.451874 597.219116,450.054718 596.316162,452.553528 
	C594.846069,456.621857 593.654846,460.800110 592.015625,464.796478 
	C587.069336,476.855713 579.421936,486.020813 565.618530,487.955414 
	C556.009644,489.302155 546.351013,489.296906 536.796326,487.540985 
	C522.123474,484.844513 515.719604,478.554718 512.838257,463.928772 
	C511.490601,457.087860 510.586029,450.151733 509.692139,443.231415 
	C508.654816,435.200989 505.929443,433.136841 498.042358,434.615417 
	C482.193542,437.586578 466.344391,440.559204 450.469635,443.386749 
	C446.728241,444.053131 445.322235,445.684814 445.163269,449.662933 
	C444.342102,470.215729 449.069427,489.591156 456.668396,508.477478 
	C460.796021,518.736267 467.414246,526.795166 476.798126,532.573059 
	C481.190674,535.277710 485.440308,538.444885 490.185150,540.303406 
	C504.024689,545.724548 512.423340,555.279236 515.402405,569.930542 
	C516.420715,574.938599 518.565735,579.776123 521.845215,583.895142 
	C525.227051,588.142822 527.723755,588.469604 531.948486,585.095032 
	C536.162170,581.729248 538.791809,576.957458 542.349854,573.005310 
	C543.723267,571.479736 544.682129,569.204590 547.825134,569.655396 
	C548.769165,572.304688 549.742249,575.103577 550.762207,577.885376 
	C554.278809,587.476379 561.168701,593.296570 571.118774,595.034546 
	C579.132751,596.434265 586.711975,594.410828 591.884399,588.032227 
	C596.599976,582.216980 592.654175,576.380493 589.861694,570.884460 
	C589.032898,569.253052 588.193848,567.625000 587.430908,565.962646 
	C586.944092,564.901855 586.530518,563.780945 588.063110,561.854187 
	C599.228760,564.365662 611.019836,564.429382 622.655579,561.048950 
	C624.020569,566.058350 621.050354,568.844055 619.635803,572.057800 
	C617.560730,576.772278 615.957581,581.434204 618.878479,586.344604 
	C620.292603,588.722046 622.208191,590.561646 625.156860,590.743652 
	C628.357178,590.941101 629.311218,588.344116 630.380310,586.142639 
	C633.431458,579.859375 635.439880,573.130005 638.896118,566.996643 
	C651.666321,544.334595 654.968872,519.709839 653.645203,494.168427 
	C653.555298,492.433624 653.388977,490.672333 651.251465,490.352997 
	C646.565308,489.652954 641.859863,489.081909 636.526794,488.373840 
	C639.647888,499.537445 636.556763,507.379242 626.487549,512.063171 
	C621.956177,514.171021 617.599121,514.837280 612.800415,511.419464 
	C615.635742,508.825928 618.865723,508.328339 621.610352,506.932953 
	C630.162659,502.584991 632.756653,496.429993 629.069397,487.622253 
	C626.438293,481.337311 623.176025,475.316589 619.840515,468.525024 
M553.702576,707.131104 
	C553.556091,701.775818 554.347595,696.495544 555.258484,691.259094 
	C558.024536,675.356140 561.979248,659.714844 565.976929,644.088074 
	C567.681763,637.424194 567.741943,637.374084 561.261108,635.981506 
	C549.348328,633.421814 537.781555,629.730530 526.491943,625.208557 
	C504.977478,616.590942 483.811615,607.236145 464.541199,594.144287 
	C450.243134,584.430603 440.738159,571.531372 438.418304,554.004028 
	C435.164703,529.421753 433.594727,504.684753 431.747345,479.976135 
	C431.100616,471.326202 426.476501,464.722900 421.419708,458.258820 
	C421.039642,457.773010 420.197388,457.083405 419.858643,457.217499 
	C416.180176,458.674011 414.398438,455.619202 412.078888,454.003693 
	C408.225647,451.320007 404.203369,448.959564 399.724030,447.549927 
	C389.499817,444.332306 380.740967,448.229126 376.153259,457.915588 
	C372.348022,465.949982 371.921173,474.578339 373.842133,482.876617 
	C378.852020,504.518555 393.485382,519.056885 411.430359,530.643555 
	C416.440857,533.878723 421.931244,533.353088 426.858124,529.595886 
	C427.873810,528.821350 428.813446,527.674011 430.878479,528.455872 
	C432.133575,532.422180 430.324585,536.077759 426.841949,537.167542 
	C420.592133,539.123169 420.990448,543.277283 421.432983,548.092896 
	C423.533569,570.952087 423.043213,593.678223 416.987976,615.979370 
	C415.902222,619.978027 416.795929,622.558472 419.697784,625.207581 
	C430.275940,634.864380 440.583588,644.819946 451.238525,654.389709 
	C478.126801,678.539612 504.215271,703.608459 532.388916,726.284729 
	C540.168030,732.546021 545.405090,739.698853 547.627441,749.460693 
	C549.041870,755.673462 551.733032,761.551392 556.564880,767.526184 
	C559.487183,740.552185 572.334961,715.746155 564.338562,687.453735 
	C561.089539,696.470337 558.253967,704.339478 555.144165,712.969666 
	C554.210632,711.512207 553.917908,711.255310 553.886292,710.969604 
	C553.776611,709.980347 553.757751,708.980957 553.702576,707.131104 
M413.197205,631.319214 
	C405.977020,623.270203 396.778503,616.496338 396.053162,603.922241 
	C392.634094,606.740112 391.094086,610.289978 389.418945,613.660095 
	C384.233215,624.093018 379.605072,634.824890 373.982025,645.010986 
	C370.231384,651.805176 370.857361,656.818481 375.639404,662.955994 
	C398.050385,691.719421 420.935974,720.097168 443.922607,748.396729 
	C449.447021,755.197998 454.567566,762.355042 460.966705,768.676392 
	C479.423279,754.399719 493.905121,735.728577 515.923218,725.963257 
	C481.198273,694.549927 446.556641,664.143738 413.197205,631.319214 
M557.382080,480.933990 
	C571.192993,481.582031 579.482727,474.585266 584.067688,462.048126 
	C586.365662,455.764496 588.288818,449.455200 589.246948,442.812103 
	C590.434021,434.581421 588.275696,430.376190 580.574280,426.971252 
	C574.861938,424.445648 568.769836,423.530975 562.637024,422.883423 
	C551.994690,421.759766 541.345886,421.720703 530.778748,423.552612 
	C524.221924,424.689240 520.843445,427.732666 520.387512,433.305267 
	C519.474731,444.462646 519.662170,455.590302 522.825867,466.482422 
	C524.933105,473.737366 529.645325,478.038605 537.019165,479.648804 
	C543.434753,481.049744 549.925537,480.893341 557.382080,480.933990 
M620.827820,434.789459 
	C618.244934,451.476074 624.377319,465.410217 634.743713,477.858032 
	C637.037964,480.612885 640.759644,481.314392 644.278992,481.671448 
	C649.584961,482.209839 654.914429,482.274231 660.226074,481.744720 
	C666.010010,481.168091 670.823975,478.865570 673.585266,473.444550 
	C678.479004,463.836945 678.931213,453.483032 679.046204,442.665527 
	C677.702148,442.864288 676.894409,442.911743 676.125000,443.108795 
	C669.203003,444.881165 662.292725,446.699738 655.366943,448.456970 
	C653.597900,448.905792 651.619202,449.594696 651.208801,446.693420 
	C650.572449,442.194641 652.897583,438.868866 657.415222,437.482910 
	C663.217773,435.702728 669.290955,434.745544 675.020325,432.109497 
	C673.393188,429.453735 670.937744,428.873444 668.568726,428.279114 
	C657.101440,425.402405 645.529541,425.460144 633.930359,427.296356 
	C628.936096,428.086975 624.108765,429.331940 620.827820,434.789459 
M584.776428,669.715698 
	C581.017822,665.630920 577.947144,660.859070 572.897949,657.109314 
	C570.356995,663.843506 567.999146,669.498413 570.768494,676.370972 
	C577.148132,692.203430 578.550964,708.569458 574.320557,725.273010 
	C572.116638,733.975220 569.984009,742.696167 567.911560,751.430603 
	C567.222046,754.336426 566.537720,757.294373 566.369202,760.257996 
	C566.212524,763.014160 564.980652,765.814392 566.075378,769.539856 
	C573.981995,756.330627 583.806274,745.988831 594.838196,736.750854 
	C599.883240,732.526306 603.950745,727.557739 607.247253,721.881226 
	C609.828735,717.436096 610.920349,717.499390 613.526489,722.061340 
	C616.080627,726.532288 618.916870,730.696594 624.157654,733.052795 
	C615.236633,709.267456 600.204285,689.781982 584.776428,669.715698 
z"/>
<path fill="#000000" opacity="1.000000" stroke="none" 
	d="
M573.963379,415.126038 
	C550.053406,410.887878 526.532898,409.200256 502.775238,414.623657 
	C504.713043,410.071808 508.592407,408.114349 511.955902,405.652039 
	C525.027710,396.082703 539.787781,395.841980 554.957458,397.999237 
	C562.849915,399.121613 570.811890,399.938171 578.268616,403.067078 
	C581.607849,404.468201 584.347900,406.481903 585.538879,410.114349 
	C587.071594,414.788452 585.561890,416.837830 580.759094,416.358704 
	C578.616638,416.144958 576.505859,415.614075 573.963379,415.126038 
z"/>
<path fill="#000000" opacity="1.000000" stroke="none" 
	d="
M591.439697,535.548340 
	C582.422791,538.438904 573.316040,539.551880 564.913757,543.245361 
	C570.543152,543.919922 576.098999,543.812683 581.666504,543.317078 
	C589.794128,542.593445 597.914307,542.069153 606.046509,543.505249 
	C611.038330,544.386780 615.980408,543.774414 620.870361,542.439392 
	C624.610596,541.418213 628.066162,541.746582 630.417419,545.145691 
	C630.126831,547.174316 628.694641,547.464722 627.426636,547.657288 
	C618.933044,548.946899 610.574097,551.614319 601.778259,549.342957 
	C595.421448,547.701477 588.898438,548.249084 582.401611,548.789062 
	C575.561279,549.357666 568.699036,549.235107 562.324707,546.307373 
	C559.613098,545.061951 558.536560,546.867188 557.419373,548.309448 
	C554.397522,552.210754 551.611206,556.294556 548.929932,560.029602 
	C546.920349,560.007141 546.391663,558.943848 545.945862,557.855713 
	C541.698364,547.487976 546.392334,533.631348 556.713745,529.249329 
	C568.640442,524.185852 581.027649,520.186096 593.301270,515.976135 
	C596.247070,514.965698 599.510681,515.004883 602.695618,515.667542 
	C608.635681,516.903442 611.221802,519.536804 611.056580,524.436401 
	C610.850342,530.552917 608.690735,532.534119 602.082153,533.330139 
	C598.632263,533.745605 595.248535,534.710083 591.439697,535.548340 
z"/>
<path fill="#000000" opacity="1.000000" stroke="none" 
	d="
M633.765808,542.382141 
	C630.691162,537.669312 626.323608,535.261353 621.634521,533.413879 
	C617.724915,531.873535 615.461731,529.135559 614.402344,525.145752 
	C612.798157,519.104431 617.242615,514.506836 623.382324,515.950378 
	C631.842041,517.939392 643.904907,530.398987 644.895081,539.068726 
	C645.660278,545.768555 643.865295,552.047180 638.546143,557.756958 
	C635.381775,552.706238 636.975952,546.943176 633.765808,542.382141 
z"/>
<path fill="#000000" opacity="1.000000" stroke="none" 
	d="
M575.146729,500.045593 
	C575.924927,495.938293 576.916992,492.363678 581.964966,489.316986 
	C578.957153,498.868195 581.741699,505.529419 589.375854,510.389740 
	C582.090759,513.281250 576.668213,508.925140 575.146729,500.045593 
z"/>
<path fill="#000000" opacity="1.000000" stroke="none" 
	d="
M602.461853,507.384521 
	C600.261658,507.788818 598.495361,508.208832 596.713623,508.547943 
	C594.984680,508.876984 593.206665,508.776062 592.533936,506.883789 
	C591.848022,504.954529 593.363708,503.774933 594.778809,502.939270 
	C599.402344,500.208740 604.197693,500.168274 608.993408,502.482971 
	C610.337280,503.131622 611.754822,504.051331 611.202209,505.870148 
	C610.717163,507.466431 609.141968,507.273010 607.845459,507.318909 
	C606.194885,507.377380 604.541260,507.353363 602.461853,507.384521 
z"/>
<path fill="#000000" opacity="1.000000" stroke="none" 
	d="
M418.731934,507.270874 
	C409.069763,501.313660 408.022278,498.492218 411.641388,488.226715 
	C412.690887,485.249939 413.631287,482.236603 410.582092,480.077271 
	C407.598114,477.964081 405.296692,480.562500 402.958557,481.950684 
	C399.379791,484.075409 397.558990,488.101013 393.598572,491.109985 
	C392.817657,485.747009 395.099121,482.309479 397.805267,479.019196 
	C398.227081,478.506348 398.866272,478.124603 399.151672,477.555267 
	C400.632538,474.601349 407.796814,474.937225 404.467133,469.397125 
	C400.345154,462.538849 391.818329,459.802338 385.986176,462.736938 
	C384.706482,463.380829 383.709290,464.745056 382.010986,464.463715 
	C382.542938,458.427063 388.557129,454.577454 395.058258,456.273529 
	C402.041229,458.095215 406.957367,462.736786 410.924927,468.521881 
	C413.674103,472.530426 415.499847,477.007111 417.440796,481.432159 
	C418.385193,483.585236 418.543915,485.716644 417.417114,487.683441 
	C414.247986,493.215088 415.337769,497.771423 420.106232,501.772125 
	C420.957886,502.486603 421.612396,503.611542 421.994080,504.677277 
	C423.061249,507.656952 421.804260,508.395081 418.731934,507.270874 
z"/>
<path fill="#000000" opacity="1.000000" stroke="none" 
	d="
M582.301331,446.292816 
	C583.382629,445.255096 584.095947,444.225494 585.476807,444.585175 
	C587.370544,451.589752 583.144775,463.549744 576.749268,467.888397 
	C575.518433,459.712524 576.781921,452.695282 582.301331,446.292816 
z"/>
</svg>